# xmcd
# Copyright (C) 1995-1998 Ti Kan
#
# Track frame offsets:
#       150
#       20809
#       36376
#       50795
#       65974
#       81645
#       100282
#       116149
#       133928
#       149532
#       163495
#       177105
#
# Disc length: 2719 seconds
#
# Revision: 1
# Processed by: cddbd v1.5.2PL0 Copyright (c) Steve Scherf et al.
# Submitted via: CD-Transfer v1.0
#
DISCID=ca0a9d0c
DTITLE=King Of Horses, The - B. Bridwell
DYEAR=10
DGENRE=
TTITLE0=Factory
TTITLE1=Compliments
TTITLE2=Laredo 
TTITLE3=Blue Bird
TTITLE4=On My Way Back Home
TTITLE5=Infinite Arms
TTITLE6=Dilly
TTITLE7=Evening Kitchen
TTITLE8=Older
TTITLE9=For Annabelle
TTITLE10=Nw Appartement
TTITLE11=Neighbor
EXTD=
EXTT0=
EXTT1=
EXTT2=
EXTT3=
EXTT4=
EXTT5=
EXTT6=
EXTT7=
EXTT8=
EXTT9=
EXTT10=
EXTT11=
PLAYORDER=
